<svg xmlns="http://www.w3.org/2000/svg" id="Layer_1" data-name="Layer 1" viewBox="0 0 1458 370"><defs><style>      .cls-1 {        fill: #fff;      }      .cls-2 {        fill: #b0b0b0;        isolation: isolate;      }    </style></defs><polygon class="cls-1" points="87.02 .98 .89 246.97 96.92 246.97 139.92 124 139.88 124 140.04 123.95 236.07 123.95 279.13 .98 87.02 .98"></polygon><path class="cls-2" d="M288.79,246.68h-96.02l43.07-122.91h96.02l-43.07,122.91Z"></path><path class="cls-2" d="M149.64,369.76H53.61l43.07-122.97h95.97l-43.01,122.97Z"></path><path class="cls-1" d="M192.7,246.79l-43.07,122.97,139.09-122.97h-96.02Z"></path><path class="cls-1" d="M487.24,112.09h26.78l55.73,143.38h-24.74c-.28-.85-.56-1.69-.91-2.4-3.43-8.81-6.03-15.37-7.78-19.67-1.75-4.3-4.28-10.65-7.57-19.1h-57.2c-3.57,9.45-6.24,16.43-8.06,20.87-1.82,4.44-4.42,11.28-7.85,20.3h-24.32l55.93-143.38ZM500.28,192.03h20.12c-.14-.63-1.82-4.93-5.19-13.11-2.73-6.91-5.05-13.04-7.01-18.4-1.96-5.36-4.56-12.34-7.78-20.8h-.35c-2.59,6.63-5.19,13.25-7.78,20.02-4.21,10.65-8.41,21.36-12.55,32.15h20.47l.07.14Z"></path><path class="cls-1" d="M597.43,251.88c-8.06-4.44-14.37-10.79-18.93-18.89-4.56-8.11-6.87-17.62-6.87-28.41s2.31-20.3,6.87-28.55c4.56-8.18,10.73-14.52,18.65-18.96,7.92-4.44,16.75-6.7,26.78-6.7,10.79,0,20.4,2.61,28.81,7.96,8.41,5.36,14.37,13.04,18.08,23.12l-20.68,8.25c-2.1-6.13-5.47-10.78-10.09-13.96-4.7-3.17-10.02-4.79-16.26-4.79-5.82,0-10.86,1.48-15.28,4.37-4.42,2.89-7.85,6.98-10.23,12.05-2.38,5.08-3.65,10.79-3.65,16.99,0,6.77,1.33,12.69,3.86,17.76,2.59,5.07,6.24,8.95,10.79,11.77,4.63,2.75,9.81,4.09,15.42,4.09,6.66,0,12.41-1.83,17.45-5.43,4.98-3.6,8.76-8.67,11.29-15.37l20.33,7.97c-3.72,10.5-9.95,18.68-18.72,24.6-8.83,5.92-19,8.81-30.49,8.81-10.02,0-18.99-2.26-27.06-6.7h-.07Z"></path><path class="cls-1" d="M706,252.59c-4.63-3.95-7.5-8.32-8.62-13.18-1.12-4.79-1.68-10.08-1.68-16v-50.54h-20.33v-19.67h20.33v-29.33h21.94v29.4h28.81v19.67h-28.81v43.42c0,4.51.28,8.25.77,11.28.49,2.96,1.75,5.64,3.79,7.82,2.03,2.26,5.19,3.31,9.53,3.31s8.97-1.27,13.81-3.67l.91-.35v19.67c-2.59,1.48-5.54,2.61-8.76,3.17-3.29.7-6.73,1.06-10.23,1.06-9.67,0-16.89-2.04-21.52-5.99l.07-.07Z"></path><path class="cls-1" d="M761.66,153.26h21.8v102.22h-21.8v-102.22Z"></path><path class="cls-1" d="M795.23,153.26h23.83c2.73,7.26,7.64,21.36,14.72,42.3,2.31,6.49,4.42,12.2,6.17,17.13,1.75,4.86,3.85,10.57,6.17,17.13h.35c2.94-8.32,5.19-14.45,6.59-18.54,1.4-3.95,3.65-10.01,6.59-18.12,5.68-17.06,10.23-30.31,13.67-39.83h23.27l-37.43,102.22h-26.22l-37.64-102.22-.07-.07Z"></path><path class="cls-1" d="M925.26,251.88c-7.99-4.44-14.16-10.79-18.72-18.89-4.56-8.11-6.87-17.55-6.87-28.27s2.17-19.74,6.59-28.06c4.35-8.25,10.37-14.73,18.15-19.46,7.78-4.72,16.54-7.12,26.43-7.12,8.62,0,16.54,1.9,23.9,5.64,7.36,3.74,13.25,9.66,17.87,17.76,4.63,8.04,6.94,18.26,6.94,30.52v6.63h-77.53c.63,5.92,2.31,10.93,4.98,15.16,2.73,4.23,6.24,7.47,10.58,9.66,4.42,2.26,9.32,3.31,14.65,3.31,6.17,0,11.64-1.69,16.4-5.08,4.84-3.31,8.48-7.97,10.87-13.89l20.68,8.04c-3.58,9.16-9.6,16.64-18.16,22.28-8.55,5.64-18.5,8.46-29.79,8.46-10.02,0-19.07-2.26-27.06-6.7h.07ZM972.5,179.84c-2.52-3.45-5.68-6.06-9.46-7.75-3.85-1.69-7.99-2.54-12.34-2.54-4.84,0-9.18,1.06-12.97,3.03-3.78,1.97-7.01,4.86-9.39,8.39-2.38,3.6-4.14,7.75-5.12,12.41h53.9c-.49-5.64-2.03-10.22-4.56-13.68l-.07.14Z"></path><path class="cls-1" d="M1017.99,112.09h54.26c15.35,0,28.17,3.1,38.41,9.38,10.16,6.27,17.73,14.66,22.64,25.24,4.9,10.57,7.29,22.63,7.29,36.09,0,14.17-2.67,26.79-7.99,37.79-5.33,11-12.97,19.46-23.06,25.66-10.1,6.13-21.94,9.16-35.61,9.16h-55.94V112.09ZM1042.74,234.12h29.09c8.55,0,15.98-1.76,22.64-5.15,6.65-3.38,11.84-8.88,15.77-16.35,3.92-7.47,5.96-16.99,5.96-28.55,0-12.62-2.39-22.77-7.15-30.31-4.77-7.61-10.59-12.9-17.74-15.93-7.08-2.96-15.35-4.51-24.81-4.51h-25.31v100.74h1.48l.07.07Z"></path><path class="cls-1" d="M1177.25,251.74c-8.06-4.58-14.16-11-18.65-19.1-4.41-8.11-6.66-17.48-6.66-28.06s2.25-19.88,6.66-28.13c4.42-8.18,10.59-14.59,18.65-19.17,7.99-4.58,17.1-6.91,27.34-6.91s19.27,2.33,27.26,6.91c7.99,4.58,14.09,11,18.58,19.17,4.41,8.18,6.66,17.62,6.66,28.13s-2.25,19.88-6.66,28.06c-4.42,8.11-10.59,14.52-18.58,19.1s-16.96,6.91-27.26,6.91-19.35-2.33-27.34-6.91ZM1219.94,233.7c4.48-2.82,7.99-6.84,10.51-11.91,2.52-5.01,3.79-10.79,3.79-17.27s-1.27-12.34-3.79-17.41c-2.52-5.08-6.03-9.02-10.51-11.98-4.49-2.82-9.61-4.3-15.42-4.3s-10.94,1.48-15.5,4.3c-4.55,2.82-8.06,6.91-10.51,11.98-2.45,5.08-3.71,10.86-3.71,17.41s1.26,12.27,3.78,17.27c2.52,5,6.03,8.95,10.51,11.91,4.56,2.89,9.68,4.3,15.43,4.3s10.86-1.48,15.42-4.3Z"></path><path class="cls-1" d="M1292.9,251.88c-8.06-4.44-14.36-10.79-18.92-18.89-4.56-8.11-6.87-17.62-6.87-28.41s2.31-20.3,6.87-28.55c4.56-8.18,10.72-14.52,18.64-18.96,7.92-4.44,16.76-6.7,26.78-6.7,10.79,0,20.4,2.61,28.81,7.96,8.41,5.36,14.37,13.04,18.08,23.12l-20.67,8.25c-2.11-6.13-5.47-10.78-10.1-13.96-4.69-3.17-10.02-4.79-16.26-4.79-5.82,0-10.86,1.48-15.28,4.37-4.42,2.89-7.85,6.98-10.23,12.05-2.39,5.08-3.65,10.79-3.65,16.99,0,6.77,1.33,12.69,3.86,17.76,2.59,5.07,6.23,8.95,10.79,11.77,4.63,2.75,9.81,4.09,15.42,4.09,6.66,0,12.41-1.83,17.45-5.43,4.98-3.6,8.77-8.67,11.29-15.37l20.33,7.97c-3.72,10.5-9.96,18.68-18.72,24.6-8.83,5.92-18.99,8.81-30.49,8.81-10.02,0-18.99-2.26-27.06-6.7h-.07Z"></path><path class="cls-1" d="M1389.21,250.82c-7.85-5.22-12.96-12.2-15.56-20.87l20.33-6.63c2.31,5.64,5.68,9.94,9.95,12.9,4.35,2.89,8.91,4.37,13.67,4.37,2.6,0,5.12-.42,7.57-1.2,2.46-.78,4.56-2.19,6.24-4.02,1.68-1.9,2.52-4.23,2.52-7.12,0-2.61-.7-4.72-2.1-6.42-1.4-1.76-3.22-3.03-5.47-4.02-2.24-.99-4.97-1.97-8.13-2.89h-.77l-10.65-3.1s-.42-.21-.56-.21c-4.98-1.48-9.4-3.31-13.25-5.64-3.93-2.33-7.36-5.43-10.09-9.45-2.88-4.02-4.28-8.95-4.28-14.88,0-6.42,1.68-11.91,4.98-16.64,3.36-4.72,7.85-8.25,13.45-10.79,5.68-2.47,11.92-3.67,18.86-3.67,9.6,0,17.8,2.4,24.74,7.19,6.94,4.79,11.43,10.93,13.67,18.4l-20.33,6.63c-1.47-4.16-3.85-7.61-7.01-10.29-3.15-2.68-7.22-4.02-11.98-4.02-2.74,0-5.19.49-7.43,1.48s-3.93,2.33-5.19,4.02c-1.26,1.76-1.82,3.74-1.82,6.06,0,4.02,1.75,7.19,5.26,9.24,3.5,2.11,8.27,4.02,14.09,5.64l.21.21h.21l8.55,2.4s.42,0,.56.21c5.04,1.48,9.46,3.1,13.25,4.93,3.85,1.83,7.22,4.65,10.09,8.53,2.94,3.81,4.42,8.88,4.42,15.16s-1.62,12.05-4.84,16.92c-3.23,4.93-7.85,8.67-13.81,11.49-6.03,2.75-12.9,4.09-20.68,4.09-11.14,0-20.68-2.61-28.53-7.82h-.21l.07-.21Z"></path></svg>